<svg xmlns="http://www.w3.org/2000/svg" viewBox="0 0 532.07 546.94"><defs><style>.cls-1{fill:#fff;}</style></defs><title>Asset 2</title><g id="Layer_2" data-name="Layer 2"><g id="Layer_1-2" data-name="Layer 1"><path class="cls-1" d="M414.88,313.8v6.65c0,33.2.06,66.41,0,99.62-.05,17.21-18.39,31.11-37.47,27.94-11.2-1.86-22.09-5.1-33.2-7.4-43-8.88-86.33-11.05-129.87-4-18.78,3-37.42,7-55.87,11.37-16.46,3.9-39-11.37-38.6-26.36.88-33.85,0-67.74.2-101.61,0-5.29-2-6.43-7.52-8.09-16-4.82-31.53-11-47.18-16.75-13.27-4.89-20.75-15.72-30.76-24-13-10.78-19.77-24.72-24.69-39.06-5.69-16.57-13.32-33.5-8.2-51.36,5.86-20.44,11-41.38,26.91-58.1S63.17,92.15,86.9,85.9c14.13-3.72,29.25-4.51,44-6.24,3.69-.44,6-.53,7.72-4.4,10.33-23.51,26.6-42.1,51.2-56.1,21-11.95,43-17.12,66.95-18.7,24.46-1.61,48.52.83,70.71,10.19C345,18,360.85,28.18,373.36,41.9c9.07,10,17.11,20.45,20.8,33,1.15,3.89,3.38,4.8,7.44,4.66,24.23-.88,46.6,5.7,67.85,15.09,7.2,3.18,12.89,9.23,18.95,14.28,6.34,5.3,13.51,10.26,18.14,16.64,7.46,10.27,15.17,21,19.08,32.58,6,17.86,8.85,36.62,3.94,55.38-2.3,8.82-4.14,18-8.31,26.11-4.78,9.32-11.32,18.07-18.18,26.35-9.63,11.64-21,22.09-35.38,29-9.9,4.77-20.63,8.17-31.11,11.92C430,309.33,423.13,311.22,414.88,313.8ZM251.75,331.65c.15-3,.43-5.87.43-8.71,0-34.77-.06-69.53.12-104.3,0-3.36,1-9.28,2.67-9.62a66.4,66.4,0,0,1,21-1.12c6.37.78,4.63,6.6,4.66,10.55.3,35.21.41,70.42.6,105.63,0,2.57.27,5.14.39,7.43l42,3.85v-7.89c0-34.32,0-68.64.22-103,0-2.28,1-5.91,2.76-6.59,13.63-5.46,26.78,2.5,26.82,15.89q.12,36.1.13,72.2,0,18,0,36l30.05,7.58c.2-3.72.43-6.13.44-8.53.09-15.6.18-31.2.18-46.8,0-17.61-.25-35.22.08-52.82.05-2.48,2.16-6.4,4.36-7.14,11.82-3.94,26.36,5.63,26.44,16.94.07,10.62,0,21.23,0,33.29,9.84-3.4,18.66-5.63,26.59-9.37,14.71-6.94,28.52-14.72,37.73-28.18,10.35-15.11,19-30.27,19.52-48.48.53-17.37-1.61-34-12.84-48.76-5.38-7.05-10-15.2-17.27-20.31a116.69,116.69,0,0,0-32.62-16.27c-25.85-7.82-50-3.19-71,12.56-6.46,4.84-17.51,5.57-22.21.88-6.07-6-5.19-14,2.78-19.86,6.79-5,14.05-9.51,21.4-14.44-1-3-1.5-6.7-3.29-9.76-4.65-8-8.35-17-15.17-23.22-12.58-11.43-26.75-20.88-45.1-25.54A159.36,159.36,0,0,0,235,31.4C215.87,34.85,199.87,44,186.69,56.74,176,67.14,166.64,78.33,165.48,91.82c8,6.11,15.63,11.42,22.57,17.34,6.09,5.2,6.09,13.36.82,17.72S173,131,167.7,126.55A65.11,65.11,0,0,0,142.62,113c-19.4-5.43-38.43-4.69-56,2.89-32.49,14-49,38.38-52,70.36-1.31,14,.53,27.89,6.59,40.57,4.93,10.29,12.5,19.76,20,28.84,10.74,12.94,27,19.27,42.93,25.5,4.58,1.79,9.75,2.36,15.89,3.77,0-12.61-.06-23.71,0-34.81.08-10.67,6.38-16.27,18.32-16.48,10.59-.17,12.21,1.17,12.25,10.54q.21,48.48.37,96.95c0,2.54.26,5.09.45,8.44l30-8v-8.41c0-32.54.26-65.08-.12-97.61-.16-13.82,6.27-19.19,20.55-18.45,7,.36,9.41,2.05,9.36,8.51-.25,34.09,0,68.19.08,102.29,0,2.53.25,5.05.38,7.62Zm132.14,81.06c0-8.1-.28-15,.08-21.83.38-7.23.31-12.34-10.33-14.83C352.72,371.16,333,363.16,311,360.61c-42.09-4.88-83.46-3.81-124.46,5.8-9.95,2.34-19.63,5.73-29.25,9-2.43.84-5.84,3.21-5.94,5-.56,10.37-.27,20.76-.27,31.85C229,388.66,306.07,385.73,383.89,412.71Z"/><path class="cls-1" d="M328,510H342.5V488.9h18.85v56.56h-18.5V516.74h-14.5v28.84H309.71V488.93H328Z"/><path class="cls-1" d="M392.65,521.47v24.09H373.28V488.81h18.56V512c10.51-8.14,14.66-21.21,28.92-24.06l1.52,1.28L407.4,505.65c7.45,12.79,15.08,25.88,23.44,40.21-7,0-12.73.62-18.17-.27-2.59-.42-5.24-3.36-6.74-5.72-3.86-6.07-7.1-12.44-10.58-18.69Z"/><path class="cls-1" d="M140.67,502.73l-6.65,2.7c-1.61-3.39-2.14-7.2-4.58-9.12-8-6.25-17.74-3.2-18.83,6.28-1.14,9.88-.42,19.94-.12,29.91.06,1.89,1.52,4.13,3.11,5.5s5.06,3.34,6.29,2.75c2.35-1.13,4.82-3.73,5.21-6,.8-4.55.24-9.29.24-13.33-3-2.47-9.92,1.21-8.3-5.74h26.12v29.8c-.47.13-1.1.48-1.37.33-6.91-3.8-13.84.37-20.51-.15-8-.62-16.89-2.14-23.34-6-7.22-4.3-9.16-12.54-9.63-20.55-1.51-25.75,20.89-34.12,39.8-29.43C135.3,491.5,137.86,494,140.67,502.73Z"/><path class="cls-1" d="M487.56,546.94l-7.09-3.3c-6.54.81-12.42,1.8-18.34,2.23-14.12,1-22-7.4-26.89-16.78-4.22-8.14-3.48-17.14,1.6-26.25,7.15-12.82,24.59-17,36.14-13.16a22.2,22.2,0,0,1,9.46,6.36c4.58,5.4,3.71,6.79-4.3,9.12a25.17,25.17,0,0,1-1.26-4.17c-.62-4.81-3.8-7.25-9-7.66s-10.14.65-11.76,5.52a58.52,58.52,0,0,0-.32,36c1.07,3.53,4.49,7.75,9.32,5.9,3-1.15,5.34-5.28,6.3-8.47,1.07-3.57.24-7.58.24-11.74a49.39,49.39,0,0,1-7-.41c-1.31-.26-2.4-1.34-3.59-2,1.23-.88,2.43-2.49,3.7-2.53,7.45-.24,14.92-.12,22.85-.12Z"/><path class="cls-1" d="M252.93,524.33c0-15.6,6.62-21.49,23.51-21.82,13.64-.26,24.29,7.27,24.49,21.58.17,11.9-10.53,22.44-24.26,22C261.05,545.66,253.26,540.34,252.93,524.33Zm29.86.17c-.76-5.2-1.13-9.66-2.19-14-.38-1.57-2.38-2.84-3.65-4.25-1.41,1.28-4,2.55-4.05,3.84-.16,9.67.1,19.34.52,29,.05,1.06,2,2.06,3.06,3.08,1.25-1.09,3.28-2,3.6-3.32C281.32,533.93,282,528.88,282.79,524.5Z"/><path class="cls-1" d="M160.68,518.37c-3.55-2.3-7.43-3.5-8.1-5.53-1.36-4.11,1.11-8.08,6.26-8.43a239.78,239.78,0,0,1,27.86-.29c4.45.22,7,3.28,6.75,7.7s-.12,9,0,13.46c.15,6.83-2.39,14.41,7.94,18.9-8.9,1.86-16.3,3.54-23.57-.68-.8-.46-2.43.13-3.66.31-4.43.66-8.87,2-13.27,1.88-7.51-.14-10.86-3.39-11.9-10.41-.88-5.94,2.69-9.78,8.37-12.08,4.13-1.68,8.7-2.49,12.87-4.11s6.85-4.31,5.4-8.62c-1.36-4.07-5.08-4.85-9.28-4.2-5.29.82-6.23,4.07-5.47,8.16A28.57,28.57,0,0,1,160.68,518.37ZM171,541.55c6.66-6.27,5.06-13.06,4.42-20.1C165.68,525.77,164.06,533,171,541.55Z"/><path class="cls-1" d="M234.39,545.61H215.61V493.25c-4.75,0-9,.16-13.17-.11-1.21-.08-2.31-1.42-3.46-2.18,1.08-.82,2.15-2.36,3.24-2.37,16.13-.15,32.26-.1,50.29-.1-4.75,8.07-12.82,2.43-18.12,6.26Z"/></g></g></svg>